<svg
  xmlns="http://www.w3.org/2000/svg"
  width="161.842"
  height="216.118"
  viewBox="13.25 8.43 161.842 216.118"
>
  <defs>
    <clipPath id="a">
      <path d="M0 1190.551h841.89V0H0Z" style="fill:none;clip-rule:nonzero" />
    </clipPath>
  </defs>
  <g style="clip-path:url(#a)" transform="matrix(1 0 0 -1 -326.773 732.49)">
    <path
      d="M0 0c9.235 22.811 5.075 49.728-10.097 65.464-2.543 2.628-5.309 4.873-8.288 6.724 1.5 46.398-3.351 75.912-14.459 87.732-.383.383-.755.734-1.138 1.043-1.128.957-2.234 1.617-3.288 2.053-1.404.585-2.713.798-3.872.798-.16 0-.32 0-.469-.01a8 8 0 0 1-1.287-.16c-4.426-.83-8.618-4.862-11.235-10.852-6.586-16.842-5.064-35.908-3.596-54.335.01-.128.021-.245.032-.362-5.267 17.682-12.938 36.344-25.354 50.164-1.362 1.511-3.266 2.99-5.458 4.086-.542.277-1.106.532-1.691.755-1.735.671-3.607 1.075-5.49 1.075-.681 0-1.373-.053-2.054-.17-11.054-1.852-9.107-15.502-8.064-22.843l.18-1.266c1.416-10.395 4.597-21.002 9.714-32.429 3.001-6.692 6.575-13.469 10.82-20.47-4.426 4.032-9.607 7.469-14.331 7.873a16 16 0 0 1-1.436.064c-2.075 0-4.16-.383-6.118-1.106a17.3 17.3 0 0 1-5.341-3.118c-3.053-2.638-4.841-6.192-5.064-10.022-.223-3.979.447-7.937 1.607-11.703a21 21 0 0 1-3.341 1.393c-.756.245-1.522.437-2.288.586-1.159.212-2.34.329-3.5.329-2.075 0-4.128-.361-6.064-1.127-6.044-2.373-9.321-7.991-8.991-15.427.532-11.236 10.118-30.993 23.024-41.377 4.128-3.319 8.299-5.405 12.331-6.192 0-.287.053-.575.181-.862C-96.031-22.704-75.518-35.28-53.09-35.28h.01c.415 0 .83 0 1.245.011C-27.641-34.45-8.756-21.598 0 0m-3.979 71.379C13.469 53.293 18.342 22.63 7.884-3.192 2.958-15.353-5.075-25.471-15.342-32.461c-10.203-6.947-22.726-10.862-36.206-11.309l-.064-.011h-.053c-.468-.011-.947-.011-1.425-.011-12.587 0-24.822 3.437-35.387 9.927-9.799 6.022-17.502 14.278-22.438 23.992-3.852 1.404-7.65 3.617-11.363 6.596-14.885 11.991-25.556 34.301-26.184 47.643-.489 11.118 4.884 19.991 14.374 23.726a24.9 24.9 0 0 0 8.15 1.692c.011.468.032.936.053 1.393.351 6.15 3.192 11.821 7.99 15.97 4.011 3.458 9.182 5.649 14.512 6.181-.106.213-.202.437-.298.66-5.458 12.182-8.851 23.556-10.373 34.716l-.181 1.266c-.574 4.065-1.447 10.214-.468 16.087 1.511 8.98 7.182 14.938 15.555 16.342 1.128.192 2.298.287 3.458.287 8.203 0 15.171-4.511 18.97-8.745 3.734-4.149 7.202-8.831 10.416-14.065.851 5.415 2.202 10.777 4.245 16.022l.063.149.064.16c3.788 8.66 10.15 14.427 17.459 15.81 1.096.202 2.224.309 3.331.309 3.628 0 9.043-1.107 14.32-6.395l.085-.085.096-.095c6.799-7.235 11.427-18.8 14.15-35.344 2.33-14.161 3.256-32.259 2.745-53.867a53 53 0 0 0 5.767-5.161"
      style="fill:#ff2e1c;fill-opacity:1"
      transform="translate(488.516 551.733)"
    />
  </g>
  <g style="clip-path:url(#a)" transform="matrix(1 0 0 -1 -326.773 732.49)">
    <path
      d="M0 0c2.128 6.554-.585 15.331-4.362 20.608-.16.224-.266.458-.33.703a64.7 64.7 0 0 0-10.841 12.873c-1.607 2.511-3.394 5.48-5.001 8.735-.011.011-.032.021-.043.043a17.6 17.6 0 0 1-1.946 1.936c-.469.394-.947.756-1.437 1.096-2.734 1.862-5.905 2.873-8.948 2.873-1.542 0-3.053-.266-4.457-.82-4.309-1.691-6.554-5.702-6.31-11.277.49-10.299 9.767-28.854 21.449-38.26 1.245-1 2.703-2.042 4.309-2.957a24 24 0 0 1 1.66-.862c2.266-1.075 4.756-1.809 7.32-1.809h.011c.649 0 1.319.043 1.979.149C-3.447-5.756-1.106-3.415 0 0m22.385 15.821c3.054 3.649 2.107 12.256-.691 18.012a1.4 1.4 0 0 0-.075.192c-.425.191-.851.383-1.255.585-4.852 2.479-7.575 6.213-7.873 10.831-.5 3.223-.117 6.288 1.106 9.107a1.8 1.8 0 0 0-.34.415C9.831 60.783-.745 71.858-7.756 72.475c-1.521.139-3.085-.021-4.575-.425h-.011a10 10 0 0 1-1.117-.362 12 12 0 0 1-1.617-.713 12.7 12.7 0 0 1-2.426-1.649c-1.532-1.319-3.394-3.617-3.596-7.033-.542-9.511 4.958-19.289 9.15-25.811 6.575-10.256 15.81-18.055 26.013-21.97q2.075-.574 3.735-.574c2 0 3.543.627 4.585 1.883m13.129 53.058c-.17.426-.287.873-.372 1.256l-.117.468c-5.086 21.555-12.991 48.6-29.205 66.655-.798.894-1.83 1.745-2.99 2.469-.383.234-.787.468-1.202.67-1.649.83-3.479 1.362-5.256 1.362a8 8 0 0 1-1.362-.107c-6.426-1.074-5.777-9.511-4.564-18.044l.191-1.298c1.352-9.98 4.426-20.204 9.374-31.258 4.426-9.895 10.192-19.992 17.533-30.78 2.096 2.128 4.799 4.032 8.097 5.649.064.043.138.064.213.096a81 81 0 0 0 9.66 2.862m33.95-2.575c1.543 54.665-6.341 75.061-13.331 82.498-1.713 1.713-3.479 2.596-5.234 2.596-.32 0-.649-.032-.968-.096-3.001-.564-6.097-3.745-8.086-8.288-6.203-15.863-4.724-34.429-3.288-52.388.575-7.267 1.117-14.129 1.192-20.896v-.01c3.383.564 6.671.84 9.862.84 2.256 0 4.458-.138 6.597-.415a48 48 0 0 0 2.543-.404c.84-.149 1.67-.33 2.489-.532a45 45 0 0 0 2.426-.66c2-.617 3.936-1.361 5.798-2.245m18.63-72.858c8.49 20.96 4.607 46.569-9.214 60.91-4.298 4.458-9.362 7.671-15.044 9.64a38 38 0 0 1-2.894.872 34 34 0 0 1-2.989.67 46 46 0 0 1-8.416.756c-.426 0-.862-.011-1.298-.021a56 56 0 0 1-2.628-.128 60 60 0 0 1-8.182-1.192 60 60 0 0 1-2.809-.659c-.468-.128-.946-.245-1.415-.383a50 50 0 0 1-2.872-.862 86 86 0 0 1-2.915-.99c-5.639-2.798-12.023-7.841-10.714-16.044.01-.074.021-.149.021-.223.138-2.415 1.234-4.384 3.33-5.99a14.4 14.4 0 0 1 2.713-1.628c.394-.192.809-.372 1.234-.543a.7.7 0 0 1 .192-.063c.362-.149.745-.288 1.128-.415.223-.075.457-.149.691-.224.883-.276 1.809-.51 2.756-.713a28 28 0 0 1 1.649-.329 37 37 0 0 1 1.553-.256c.256-.032.522-.074.788-.106a53 53 0 0 1 3.181-.341 47 47 0 0 1 2.436-.159 38 38 0 0 1 1.522-.064 77 77 0 0 1 3.128-.053c1.606 0 3.138.042 4.564.095.351.022.691.032 1.032.054h.011c.34.021.67.032.989.053.809.053 1.564.106 2.256.159.276.022.542.054.797.075l.373.032c.245.021.479.053.691.074l.628.064c.287.032.543.075.777.096.383.053.67.106.862.138.127.032.266.032.393.043 1.373 1.67 2.969 3.202 4.852 4.458a2.144 2.144 0 0 0 2.958-.575 2.14 2.14 0 0 0-.586-2.958C53.569 29.96 51.824 12.789 52.324 7.299a2.13 2.13 0 0 0-1.925-2.32c-.064 0-.139-.01-.202-.01a2.135 2.135 0 0 0-2.118 1.936c-.308 3.383.022 9.66 1.947 16.236.702 2.425 1.745 5.224 3.235 7.979a49 49 0 0 0-2.086-.191 107 107 0 0 0-2.351-.149 110 110 0 0 0-3.958-.128c-.457-.011-.925-.011-1.404-.011-5.331 0-11.352.415-16.576 1.671 2.255-6.607 2.553-14.693-1.235-19.215-1.415-1.702-3.84-3.415-7.83-3.415-1.458 0-3.107.234-5.001.766a1 1 0 0 0-.18.053 52.7 52.7 0 0 0-9.555 4.852C4.99 10.086 5.777 3.99 4.054-1.319c-1.543-4.745-4.937-8.118-9.81-9.735a3 3 0 0 0-.319-.085 18 18 0 0 0-1.862-.192c.255-.521.511-1.043.787-1.564a43 43 0 0 1 1.756-3.011c2.798-4.415 6.362-8.33 10.501-11.629a48 48 0 0 1 4.319-3.096c2.501-1.596 5.15-3 7.927-4.181a52 52 0 0 1 3.383-1.298 55.4 55.4 0 0 1 19.353-3.064c22.407.755 39.919 12.65 48.005 32.62m-6.15 63.858C97.116 41.568 101.276 14.65 92.041-8.16 83.285-29.758 64.4-42.611 40.206-43.43c-.415-.01-.83-.01-1.245-.01h-.01c-22.428 0-42.941 12.575-51.335 31.588a2.1 2.1 0 0 0-.181.862c-4.032.787-8.203 2.872-12.331 6.192C-37.802 5.586-47.388 25.343-47.92 36.578c-.329 7.437 2.947 13.055 8.991 15.427 1.936.766 3.989 1.128 6.064 1.128 1.16 0 2.341-.117 3.5-.33a25 25 0 0 0 2.288-.585 21 21 0 0 0 3.341-1.394c-1.16 3.767-1.83 7.724-1.607 11.703.223 3.831 2.011 7.384 5.064 10.023a17.3 17.3 0 0 0 3.905 2.521c.468.213.947.415 1.436.596a17.7 17.7 0 0 0 6.118 1.107q.719 0 1.436-.064c4.724-.405 9.906-3.841 14.332-7.873-4.246 7-7.82 13.778-10.821 20.47-5.117 11.426-8.298 22.034-9.713 32.429l-.181 1.266c-1.043 7.341-2.99 20.991 8.064 22.842.681.117 1.373.171 2.054.171 1.883 0 3.755-.405 5.49-1.075a21 21 0 0 0 1.691-.755c2.192-1.096 4.096-2.575 5.458-4.086 12.416-13.82 20.087-32.482 25.354-50.165l-.032.362c-1.468 18.428-2.99 37.493 3.596 54.335 2.617 5.99 6.809 10.023 11.235 10.853.394.074.83.127 1.288.159.148.011.308.011.468.011 1.159 0 2.468-.213 3.872-.798 1.054-.447 2.16-1.107 3.288-2.054.372-.319.755-.659 1.138-1.042 11.108-11.821 15.959-41.334 14.459-87.732 2.979-1.852 5.746-4.096 8.288-6.724"
      style="fill:#fff;fill-opacity:1"
      transform="translate(396.475 559.894)"
    />
  </g>
  <g style="clip-path:url(#a)" transform="matrix(1 0 0 -1 -326.773 732.49)">
    <path
      d="M0 0c-4.298 4.458-9.363 7.671-15.044 9.639a51 51 0 0 1-1.915.607c-.319.095-.649.181-.979.266-.979.255-1.968.478-2.99.67a46 46 0 0 1-9.713.734 55 55 0 0 1-2.628-.128 68 68 0 0 1-4.043-.446 69 69 0 0 1-4.139-.745c-.925-.202-1.862-.426-2.809-.66-.468-.127-.947-.245-1.415-.383a73 73 0 0 1-2.872-.862 84 84 0 0 1-2.916-.989C-57.101 4.905-63.485-.138-62.176-8.341c.01-.075.021-.149.021-.224.138-2.415 1.234-4.383 3.33-5.99a14.4 14.4 0 0 1 2.713-1.627c.394-.192.809-.373 1.234-.543a.7.7 0 0 1 .192-.064c.372-.159.744-.287 1.127-.415.235-.085.458-.149.692-.223a35 35 0 0 1 2.756-.713 28 28 0 0 1 1.649-.33c.51-.096 1.032-.181 1.553-.255.256-.032.521-.075.787-.107a64 64 0 0 1 3.182-.34 46 46 0 0 1 2.436-.16 38 38 0 0 1 1.521-.064 79 79 0 0 1 3.128-.053c1.607 0 3.139.043 4.565.096.351.021.702.032 1.032.053h.01c.341.011.671.032.99.053.808.054 1.564.107 2.255.16.277.032.543.053.798.074l.373.032c.244.032.478.054.691.075.224.021.426.042.628.064.287.042.543.074.777.095.383.054.67.107.861.139.128.032.266.032.394.042 1.373 1.671 2.968 3.203 4.852 4.458.361.245.776.362 1.181.362.691 0 1.361-.33 1.776-.936a2.14 2.14 0 0 0-.585-2.958c-10.054-6.756-11.799-23.928-11.299-29.418a2.127 2.127 0 0 0-1.926-2.319c-.063 0-.138-.011-.202-.011-1.085 0-2.01.83-2.117 1.936-.308 3.384.021 9.661 1.947 16.236.702 2.426 1.745 5.224 3.234 7.98a47 47 0 0 0-2.085-.192 126 126 0 0 0-2.351-.149 109 109 0 0 0-3.958-.127c-.457-.011-.926-.011-1.404-.011-5.331 0-11.353.415-16.576 1.67 2.255-6.607 2.553-14.693-1.235-19.214-1.415-1.703-3.841-3.416-7.83-3.416-1.458 0-3.107.234-5.001.766a1 1 0 0 0-.181.054 52.8 52.8 0 0 0-9.554 4.851c1.905-5.266 2.692-11.363.968-16.672-1.542-4.745-4.936-8.118-9.809-9.735a3 3 0 0 0-.319-.085 18 18 0 0 0-1.862-.191 53 53 0 0 1 .787-1.564 43 43 0 0 1 1.756-3.011c2.798-4.416 6.362-8.331 10.501-11.629a48 48 0 0 1 4.319-3.096c2.501-1.596 5.15-3 7.927-4.181a51 51 0 0 1 3.383-1.298 55.4 55.4 0 0 1 18.236-3.075c.372 0 .745 0 1.117.01 22.406.756 39.919 12.651 48.005 32.621C17.704-39.951 13.821-14.342 0 0"
      style="fill:#ff2e1c;fill-opacity:1"
      transform="translate(475.356 614.25)"
    />
  </g>
  <g style="clip-path:url(#a)" transform="matrix(1 0 0 -1 -326.773 732.49)">
    <path
      d="M0 0a37 37 0 0 0 2.426-.66C1.628-.415.819-.202 0 0"
      style="fill:#ff3929;fill-opacity:1"
      transform="translate(457.716 629.103)"
    />
  </g>
  <g style="clip-path:url(#a)" transform="matrix(1 0 0 -1 -326.773 732.49)">
    <path
      d="M0 0c-1.713 1.713-3.479 2.596-5.235 2.596-.319 0-.649-.032-.968-.096-3-.564-6.096-3.745-8.086-8.288-6.202-15.863-4.724-34.429-3.287-52.388.574-7.267 1.117-14.129 1.191-20.896v-.01c3.384.564 6.671.84 9.863.84 2.256 0 4.458-.138 6.596-.415a50 50 0 0 0 2.543-.404c.841-.149 1.671-.33 2.49-.532a37 37 0 0 0 2.426-.66c2-.617 3.936-1.361 5.798-2.244C14.874-27.833 6.99-7.437 0 0"
      style="fill:#ff2e1c;fill-opacity:1"
      transform="translate(452.609 708.696)"
    />
  </g>
  <g style="clip-path:url(#a)" transform="matrix(1 0 0 -1 -326.773 732.49)">
    <path
      d="M0 0c.383-.309.755-.66 1.138-1.043C.755-.66.372-.319 0 0"
      style="fill:#fff;fill-opacity:1"
      transform="translate(454.534 712.696)"
    />
  </g>
  <g style="clip-path:url(#a)" transform="matrix(1 0 0 -1 -326.773 732.49)">
    <path
      d="M0 0c1.053-.436 2.16-1.096 3.288-2.053C2.16-1.107 1.053-.447 0 0"
      style="fill:#fff;fill-opacity:1"
      transform="translate(451.247 714.75)"
    />
  </g>
  <g style="clip-path:url(#a)" transform="matrix(1 0 0 -1 -326.773 732.49)">
    <path
      d="M0 0c.287.043.543.074.777.096C.543.074.287.032 0 0"
      style="fill:#ff3929;fill-opacity:1"
      transform="translate(450.842 595.408)"
    />
  </g>
  <g style="clip-path:url(#a)" transform="matrix(1 0 0 -1 -326.773 732.49)">
    <path
      d="M0 0c.245.032.479.053.692.074C.479.053.245.021 0 0"
      style="fill:#ff3929;fill-opacity:1"
      transform="translate(449.523 595.27)"
    />
  </g>
  <g style="clip-path:url(#a)" transform="matrix(1 0 0 -1 -326.773 732.49)">
    <path
      d="M0 0c.277.032.543.053.798.074C.543.053.277.021 0 0"
      style="fill:#ff3929;fill-opacity:1"
      transform="translate(448.353 595.163)"
    />
  </g>
  <g style="clip-path:url(#a)" transform="matrix(1 0 0 -1 -326.773 732.49)">
    <path
      d="M0 0a11 11 0 0 1-1.287-.16A8 8 0 0 0 0 0"
      style="fill:#fff;fill-opacity:1"
      transform="translate(446.906 715.537)"
    />
  </g>
  <g style="clip-path:url(#a)" transform="matrix(1 0 0 -1 -326.773 732.49)">
    <path
      d="m0 0-.117.468c-5.086 21.555-12.991 48.601-29.205 66.656-.798.893-1.83 1.745-2.99 2.468-.383.234-.787.458-1.202.67-1.649.83-3.479 1.362-5.256 1.362-.457 0-.915-.032-1.362-.106-6.426-1.075-5.777-9.512-4.564-18.045l.192-1.298c1.351-9.979 4.425-20.204 9.373-31.258 4.426-9.895 10.192-19.991 17.534-30.78 2.095 2.128 4.798 4.033 8.096 5.65.064.042.138.064.213.096a82 82 0 0 0 9.66 2.862C.202-.83.085-.383 0 0"
      style="fill:#ff2e1c;fill-opacity:1"
      transform="translate(431.617 630.028)"
    />
  </g>
  <g style="clip-path:url(#a)" transform="matrix(1 0 0 -1 -326.773 732.49)">
    <path
      d="M0 0c-.032.064-.053.128-.074.191C-.5.383-.926.575-1.33.777c-4.851 2.479-7.575 6.213-7.873 10.83-.5 3.224-.117 6.288 1.107 9.108a2 2 0 0 0-.341.415c-3.426 5.819-14.001 16.895-21.013 17.512a13.4 13.4 0 0 1-4.575-.425h-.01a13 13 0 0 1-1.117-.362 13 13 0 0 1-.554-.213 14 14 0 0 1-1.064-.5 12.7 12.7 0 0 1-2.425-1.649c-1.532-1.319-3.394-3.618-3.596-7.033-.543-9.511 4.958-19.289 9.149-25.811 6.576-10.256 15.81-18.055 26.014-21.97q2.075-.575 3.734-.575c2 0 3.543.628 4.586 1.884C3.745-14.363 2.798-5.756 0 0"
      style="fill:#ff2e1c;fill-opacity:1"
      transform="translate(418.169 593.727)"
    />
  </g>
  <g style="clip-path:url(#a)" transform="matrix(1 0 0 -1 -326.773 732.49)">
    <path
      d="M0 0a18 18 0 0 0 1.692-.755C1.149-.479.585-.234 0 0"
      style="fill:#ff3929;fill-opacity:1"
      transform="translate(398.316 704.834)"
    />
  </g>
  <g style="clip-path:url(#a)" transform="matrix(1 0 0 -1 -326.773 732.49)">
    <path
      d="M0 0c.415-.202.819-.436 1.202-.67C.819-.436.415-.213 0 0"
      style="fill:#fff;fill-opacity:1"
      transform="translate(398.103 700.29)"
    />
  </g>
  <g style="clip-path:url(#a)" transform="matrix(1 0 0 -1 -326.773 732.49)">
    <path
      d="M0 0a2.1 2.1 0 0 0-.33.702 64.7 64.7 0 0 0-10.841 12.874c-1.607 2.511-3.394 5.479-5.001 8.735-.01.01-.032.021-.042.042a18 18 0 0 1-1.947 1.937c-.468.393-.947.755-1.437 1.095-2.734 1.862-5.905 2.873-8.947 2.873-1.543 0-3.054-.266-4.458-.819-4.309-1.692-6.554-5.703-6.309-11.278.489-10.299 9.767-28.854 21.449-38.259 1.244-1 2.702-2.043 4.308-2.958a40 40 0 0 1 1.66-.861c2.266-1.075 4.756-1.809 7.32-1.809h.011c.659 0 1.308.053 1.979.149 3.5 1.213 5.841 3.553 6.947 6.969C6.49-14.055 3.777-5.277 0 0"
      style="fill:#ff2e1c;fill-opacity:1"
      transform="translate(392.113 580.502)"
    />
  </g>
  <g style="clip-path:url(#a)" transform="matrix(1 0 0 -1 -326.773 732.49)">
    <path
      d="M0 0a13.4 13.4 0 0 1-4.575-.426C-3.085-.021-1.521.138 0 0"
      style="fill:#fff;fill-opacity:1"
      transform="translate(388.72 632.369)"
    />
  </g>
  <g style="clip-path:url(#a)" transform="matrix(1 0 0 -1 -326.773 732.49)">
    <path
      d="M0 0a12 12 0 0 1-1.117-.362C-.755-.223-.383-.096 0 0"
      style="fill:#fff;fill-opacity:1"
      transform="translate(384.134 631.943)"
    />
  </g>
  <g style="clip-path:url(#a)" transform="matrix(1 0 0 -1 -326.773 732.49)">
    <path
      d="M0 0c.468.223.947.415 1.436.596A21 21 0 0 1 0 0"
      style="fill:#ff3929;fill-opacity:1"
      transform="translate(380.101 634.965)"
    />
  </g>
  <g style="clip-path:url(#a)" transform="matrix(1 0 0 -1 -326.773 732.49)">
    <path
      d="M0 0a41 41 0 0 1 1.66-.862Q.814-.463 0 0"
      style="fill:#ff3929;fill-opacity:1"
      transform="translate(378.559 555.446)"
    />
  </g>
  <g style="clip-path:url(#a)" transform="matrix(1 0 0 -1 -326.773 732.49)">
    <path
      d="M0 0c.766-.149 1.532-.34 2.287-.585C1.532-.351.766-.16 0 0"
      style="fill:#ff3929;fill-opacity:1"
      transform="translate(367.11 612.697)"
    />
  </g>
</svg>